<svg height="800" width="800" fill="#FFF" xmlns="http://www.w3.org/2000/svg" viewBox="0 0 460 460" xml:space="preserve"><path d="M369.6 0H90.4A30.4 30.4 0 0 0 60 30.4v399.2A30.4 30.4 0 0 0 90.4 460h279.2a30.4 30.4 0 0 0 30.4-30.4V30.4A30.4 30.4 0 0 0 369.6 0zM108.2 343.6v-43.2c0-3.4 2.8-6.2 6.3-6.2h43.1c3.5 0 6.3 2.8 6.3 6.2v43.2c0 3.5-2.8 6.3-6.3 6.3h-43.1a6.2 6.2 0 0 1-6.3-6.3zm0-87v-43.2c0-3.4 2.8-6.2 6.3-6.2h43.1c3.5 0 6.3 2.8 6.3 6.2v43.2c0 3.5-2.8 6.3-6.3 6.3h-43.1a6.2 6.2 0 0 1-6.3-6.3zM308.9 421H151a20 20 0 1 1 0-40H309a20 20 0 1 1 0 40zM208.4 294.2h43.2c3.4 0 6.2 2.8 6.2 6.2v43.2c0 3.5-2.8 6.3-6.2 6.3h-43.2a6.2 6.2 0 0 1-6.2-6.3v-43.2c0-3.4 2.8-6.2 6.2-6.2zm-6.2-37.6v-43.2c0-3.4 2.8-6.2 6.2-6.2h43.2c3.4 0 6.2 2.8 6.2 6.2v43.2c0 3.5-2.8 6.3-6.2 6.3h-43.2a6.2 6.2 0 0 1-6.2-6.3zM345.5 350h-43.1a6.2 6.2 0 0 1-6.3-6.3v-43.2c0-3.4 2.8-6.2 6.3-6.2h43.1c3.5 0 6.3 2.8 6.3 6.2v43.2c0 3.5-2.8 6.3-6.3 6.3zm0-87h-43.1a6.2 6.2 0 0 1-6.3-6.3v-43.2c0-3.4 2.8-6.2 6.3-6.2h43.1c3.5 0 6.3 2.8 6.3 6.2v43.2c0 3.5-2.8 6.3-6.3 6.3zm8.5-113.3c0 11.8-9.6 21.4-21.4 21.4H127.4a21.4 21.4 0 0 1-21.4-21.4V62.4c0-11.8 9.6-21.4 21.4-21.4h205.2c11.8 0 21.4 9.6 21.4 21.4v87.2z"/></svg>